<mxfile host="Electron" modified="2023-11-15T01:03:18.603Z" agent="Mozilla/5.0 (Windows NT 10.0; Win64; x64) AppleWebKit/537.36 (KHTML, like Gecko) draw.io/22.0.3 Chrome/114.0.5735.289 Electron/25.8.4 Safari/537.36" etag="KKqXWextf2WdapendMB2" version="22.0.3" type="device">
  <diagram name="Page-1" id="MpvwWOL7kitYbuK1eDIX">
    <mxGraphModel dx="1219" dy="1813" grid="1" gridSize="10" guides="1" tooltips="1" connect="1" arrows="1" fold="1" page="1" pageScale="1" pageWidth="850" pageHeight="1100" math="0" shadow="0">
      <root>
        <mxCell id="0" />
        <mxCell id="1" parent="0" />
        <mxCell id="_iJNtNnt4_xQDbVP3RY3-3" value="" style="edgeStyle=orthogonalEdgeStyle;rounded=0;orthogonalLoop=1;jettySize=auto;html=1;" parent="1" source="_iJNtNnt4_xQDbVP3RY3-1" target="_iJNtNnt4_xQDbVP3RY3-2" edge="1">
          <mxGeometry relative="1" as="geometry" />
        </mxCell>
        <mxCell id="_iJNtNnt4_xQDbVP3RY3-41" value="" style="edgeStyle=orthogonalEdgeStyle;rounded=0;orthogonalLoop=1;jettySize=auto;html=1;" parent="1" source="_iJNtNnt4_xQDbVP3RY3-1" target="_iJNtNnt4_xQDbVP3RY3-40" edge="1">
          <mxGeometry relative="1" as="geometry" />
        </mxCell>
        <mxCell id="_iJNtNnt4_xQDbVP3RY3-186" style="edgeStyle=orthogonalEdgeStyle;rounded=0;orthogonalLoop=1;jettySize=auto;html=1;entryX=0.5;entryY=1;entryDx=0;entryDy=0;" parent="1" source="_iJNtNnt4_xQDbVP3RY3-1" target="_iJNtNnt4_xQDbVP3RY3-185" edge="1">
          <mxGeometry relative="1" as="geometry" />
        </mxCell>
        <mxCell id="_iJNtNnt4_xQDbVP3RY3-1" value="start" style="ellipse;whiteSpace=wrap;html=1;" parent="1" vertex="1">
          <mxGeometry x="30" y="-80" width="120" height="80" as="geometry" />
        </mxCell>
        <mxCell id="_iJNtNnt4_xQDbVP3RY3-5" value="" style="edgeStyle=orthogonalEdgeStyle;rounded=0;orthogonalLoop=1;jettySize=auto;html=1;" parent="1" source="_iJNtNnt4_xQDbVP3RY3-2" target="_iJNtNnt4_xQDbVP3RY3-4" edge="1">
          <mxGeometry relative="1" as="geometry" />
        </mxCell>
        <mxCell id="_iJNtNnt4_xQDbVP3RY3-2" value="input n" style="shape=parallelogram;perimeter=parallelogramPerimeter;whiteSpace=wrap;html=1;fixedSize=1;" parent="1" vertex="1">
          <mxGeometry x="30" y="130" width="120" height="60" as="geometry" />
        </mxCell>
        <mxCell id="_iJNtNnt4_xQDbVP3RY3-7" value="" style="edgeStyle=orthogonalEdgeStyle;rounded=0;orthogonalLoop=1;jettySize=auto;html=1;" parent="1" source="_iJNtNnt4_xQDbVP3RY3-4" target="_iJNtNnt4_xQDbVP3RY3-6" edge="1">
          <mxGeometry relative="1" as="geometry" />
        </mxCell>
        <mxCell id="_iJNtNnt4_xQDbVP3RY3-4" value="input choice" style="shape=parallelogram;perimeter=parallelogramPerimeter;whiteSpace=wrap;html=1;fixedSize=1;" parent="1" vertex="1">
          <mxGeometry x="30" y="230" width="120" height="60" as="geometry" />
        </mxCell>
        <mxCell id="_iJNtNnt4_xQDbVP3RY3-9" value="" style="edgeStyle=orthogonalEdgeStyle;rounded=0;orthogonalLoop=1;jettySize=auto;html=1;" parent="1" source="_iJNtNnt4_xQDbVP3RY3-6" edge="1">
          <mxGeometry relative="1" as="geometry">
            <mxPoint x="170" y="380" as="targetPoint" />
          </mxGeometry>
        </mxCell>
        <mxCell id="_iJNtNnt4_xQDbVP3RY3-20" value="" style="edgeStyle=orthogonalEdgeStyle;rounded=0;orthogonalLoop=1;jettySize=auto;html=1;" parent="1" source="_iJNtNnt4_xQDbVP3RY3-6" target="_iJNtNnt4_xQDbVP3RY3-19" edge="1">
          <mxGeometry relative="1" as="geometry" />
        </mxCell>
        <mxCell id="_iJNtNnt4_xQDbVP3RY3-6" value="case 1" style="rhombus;whiteSpace=wrap;html=1;" parent="1" vertex="1">
          <mxGeometry x="50" y="340" width="80" height="80" as="geometry" />
        </mxCell>
        <mxCell id="_iJNtNnt4_xQDbVP3RY3-12" value="" style="edgeStyle=orthogonalEdgeStyle;rounded=0;orthogonalLoop=1;jettySize=auto;html=1;" parent="1" source="_iJNtNnt4_xQDbVP3RY3-10" target="_iJNtNnt4_xQDbVP3RY3-11" edge="1">
          <mxGeometry relative="1" as="geometry" />
        </mxCell>
        <mxCell id="_iJNtNnt4_xQDbVP3RY3-125" style="edgeStyle=orthogonalEdgeStyle;rounded=0;orthogonalLoop=1;jettySize=auto;html=1;" parent="1" source="_iJNtNnt4_xQDbVP3RY3-10" edge="1">
          <mxGeometry relative="1" as="geometry">
            <mxPoint x="1420" y="560" as="targetPoint" />
            <Array as="points">
              <mxPoint x="210" y="440" />
              <mxPoint x="1421" y="440" />
              <mxPoint x="1421" y="560" />
            </Array>
          </mxGeometry>
        </mxCell>
        <mxCell id="_iJNtNnt4_xQDbVP3RY3-10" value="i&amp;lt;=n" style="rhombus;whiteSpace=wrap;html=1;" parent="1" vertex="1">
          <mxGeometry x="170" y="340" width="80" height="80" as="geometry" />
        </mxCell>
        <mxCell id="_iJNtNnt4_xQDbVP3RY3-14" value="" style="edgeStyle=orthogonalEdgeStyle;rounded=0;orthogonalLoop=1;jettySize=auto;html=1;" parent="1" source="_iJNtNnt4_xQDbVP3RY3-11" target="_iJNtNnt4_xQDbVP3RY3-13" edge="1">
          <mxGeometry relative="1" as="geometry" />
        </mxCell>
        <mxCell id="_iJNtNnt4_xQDbVP3RY3-11" value="sum +=i" style="whiteSpace=wrap;html=1;" parent="1" vertex="1">
          <mxGeometry x="310" y="350" width="120" height="60" as="geometry" />
        </mxCell>
        <mxCell id="_iJNtNnt4_xQDbVP3RY3-16" value="" style="edgeStyle=orthogonalEdgeStyle;rounded=0;orthogonalLoop=1;jettySize=auto;html=1;" parent="1" source="_iJNtNnt4_xQDbVP3RY3-13" target="_iJNtNnt4_xQDbVP3RY3-15" edge="1">
          <mxGeometry relative="1" as="geometry" />
        </mxCell>
        <mxCell id="_iJNtNnt4_xQDbVP3RY3-13" value="output i" style="shape=parallelogram;perimeter=parallelogramPerimeter;whiteSpace=wrap;html=1;fixedSize=1;" parent="1" vertex="1">
          <mxGeometry x="510" y="350" width="120" height="60" as="geometry" />
        </mxCell>
        <mxCell id="_iJNtNnt4_xQDbVP3RY3-17" style="edgeStyle=orthogonalEdgeStyle;rounded=0;orthogonalLoop=1;jettySize=auto;html=1;entryX=0.5;entryY=0;entryDx=0;entryDy=0;" parent="1" source="_iJNtNnt4_xQDbVP3RY3-15" target="_iJNtNnt4_xQDbVP3RY3-10" edge="1">
          <mxGeometry relative="1" as="geometry">
            <Array as="points">
              <mxPoint x="770" y="190" />
              <mxPoint x="210" y="190" />
            </Array>
          </mxGeometry>
        </mxCell>
        <mxCell id="_iJNtNnt4_xQDbVP3RY3-15" value="i++" style="whiteSpace=wrap;html=1;" parent="1" vertex="1">
          <mxGeometry x="710" y="350" width="120" height="60" as="geometry" />
        </mxCell>
        <mxCell id="_iJNtNnt4_xQDbVP3RY3-18" value="true" style="text;html=1;strokeColor=none;fillColor=none;align=center;verticalAlign=middle;whiteSpace=wrap;rounded=0;" parent="1" vertex="1">
          <mxGeometry x="250" y="340" width="60" height="30" as="geometry" />
        </mxCell>
        <mxCell id="_iJNtNnt4_xQDbVP3RY3-22" value="" style="edgeStyle=orthogonalEdgeStyle;rounded=0;orthogonalLoop=1;jettySize=auto;html=1;" parent="1" source="_iJNtNnt4_xQDbVP3RY3-19" target="_iJNtNnt4_xQDbVP3RY3-21" edge="1">
          <mxGeometry relative="1" as="geometry" />
        </mxCell>
        <mxCell id="_iJNtNnt4_xQDbVP3RY3-39" value="" style="edgeStyle=orthogonalEdgeStyle;rounded=0;orthogonalLoop=1;jettySize=auto;html=1;" parent="1" source="_iJNtNnt4_xQDbVP3RY3-19" target="_iJNtNnt4_xQDbVP3RY3-38" edge="1">
          <mxGeometry relative="1" as="geometry" />
        </mxCell>
        <mxCell id="_iJNtNnt4_xQDbVP3RY3-19" value="case 2" style="rhombus;whiteSpace=wrap;html=1;" parent="1" vertex="1">
          <mxGeometry x="50" y="520" width="80" height="80" as="geometry" />
        </mxCell>
        <mxCell id="_iJNtNnt4_xQDbVP3RY3-26" value="" style="edgeStyle=orthogonalEdgeStyle;rounded=0;orthogonalLoop=1;jettySize=auto;html=1;" parent="1" source="_iJNtNnt4_xQDbVP3RY3-21" target="_iJNtNnt4_xQDbVP3RY3-25" edge="1">
          <mxGeometry relative="1" as="geometry" />
        </mxCell>
        <mxCell id="_iJNtNnt4_xQDbVP3RY3-127" style="edgeStyle=orthogonalEdgeStyle;rounded=0;orthogonalLoop=1;jettySize=auto;html=1;" parent="1" source="_iJNtNnt4_xQDbVP3RY3-21" edge="1">
          <mxGeometry relative="1" as="geometry">
            <mxPoint x="1200" y="720" as="targetPoint" />
            <Array as="points">
              <mxPoint x="210" y="670" />
              <mxPoint x="1201" y="670" />
              <mxPoint x="1201" y="720" />
            </Array>
          </mxGeometry>
        </mxCell>
        <mxCell id="_iJNtNnt4_xQDbVP3RY3-21" value="i&amp;lt;n" style="rhombus;whiteSpace=wrap;html=1;" parent="1" vertex="1">
          <mxGeometry x="170" y="520" width="80" height="80" as="geometry" />
        </mxCell>
        <mxCell id="_iJNtNnt4_xQDbVP3RY3-31" style="edgeStyle=orthogonalEdgeStyle;rounded=0;orthogonalLoop=1;jettySize=auto;html=1;entryX=0.5;entryY=0;entryDx=0;entryDy=0;" parent="1" source="_iJNtNnt4_xQDbVP3RY3-23" target="_iJNtNnt4_xQDbVP3RY3-21" edge="1">
          <mxGeometry relative="1" as="geometry">
            <Array as="points">
              <mxPoint x="770" y="450" />
              <mxPoint x="210" y="450" />
            </Array>
          </mxGeometry>
        </mxCell>
        <mxCell id="_iJNtNnt4_xQDbVP3RY3-37" value="" style="edgeStyle=orthogonalEdgeStyle;rounded=0;orthogonalLoop=1;jettySize=auto;html=1;" parent="1" source="_iJNtNnt4_xQDbVP3RY3-23" target="_iJNtNnt4_xQDbVP3RY3-36" edge="1">
          <mxGeometry relative="1" as="geometry" />
        </mxCell>
        <mxCell id="_iJNtNnt4_xQDbVP3RY3-23" value="i++&lt;br&gt;d++" style="whiteSpace=wrap;html=1;" parent="1" vertex="1">
          <mxGeometry x="710" y="530" width="120" height="60" as="geometry" />
        </mxCell>
        <mxCell id="_iJNtNnt4_xQDbVP3RY3-29" value="" style="edgeStyle=orthogonalEdgeStyle;rounded=0;orthogonalLoop=1;jettySize=auto;html=1;" parent="1" source="_iJNtNnt4_xQDbVP3RY3-25" target="_iJNtNnt4_xQDbVP3RY3-28" edge="1">
          <mxGeometry relative="1" as="geometry" />
        </mxCell>
        <mxCell id="_iJNtNnt4_xQDbVP3RY3-34" style="edgeStyle=orthogonalEdgeStyle;rounded=0;orthogonalLoop=1;jettySize=auto;html=1;entryX=0.5;entryY=1;entryDx=0;entryDy=0;" parent="1" source="_iJNtNnt4_xQDbVP3RY3-25" target="_iJNtNnt4_xQDbVP3RY3-23" edge="1">
          <mxGeometry relative="1" as="geometry">
            <Array as="points">
              <mxPoint x="370" y="640" />
              <mxPoint x="770" y="640" />
            </Array>
          </mxGeometry>
        </mxCell>
        <mxCell id="_iJNtNnt4_xQDbVP3RY3-25" value="i%3 == 0" style="rhombus;whiteSpace=wrap;html=1;" parent="1" vertex="1">
          <mxGeometry x="330" y="520" width="80" height="80" as="geometry" />
        </mxCell>
        <mxCell id="_iJNtNnt4_xQDbVP3RY3-30" value="" style="edgeStyle=orthogonalEdgeStyle;rounded=0;orthogonalLoop=1;jettySize=auto;html=1;" parent="1" source="_iJNtNnt4_xQDbVP3RY3-28" target="_iJNtNnt4_xQDbVP3RY3-23" edge="1">
          <mxGeometry relative="1" as="geometry" />
        </mxCell>
        <mxCell id="_iJNtNnt4_xQDbVP3RY3-28" value="output i" style="shape=parallelogram;perimeter=parallelogramPerimeter;whiteSpace=wrap;html=1;fixedSize=1;" parent="1" vertex="1">
          <mxGeometry x="510" y="530" width="120" height="60" as="geometry" />
        </mxCell>
        <mxCell id="_iJNtNnt4_xQDbVP3RY3-32" value="true" style="text;html=1;strokeColor=none;fillColor=none;align=center;verticalAlign=middle;whiteSpace=wrap;rounded=0;" parent="1" vertex="1">
          <mxGeometry x="250" y="520" width="60" height="30" as="geometry" />
        </mxCell>
        <mxCell id="_iJNtNnt4_xQDbVP3RY3-33" value="true" style="text;html=1;strokeColor=none;fillColor=none;align=center;verticalAlign=middle;whiteSpace=wrap;rounded=0;" parent="1" vertex="1">
          <mxGeometry x="425" y="521" width="60" height="30" as="geometry" />
        </mxCell>
        <mxCell id="_iJNtNnt4_xQDbVP3RY3-35" value="false" style="text;html=1;strokeColor=none;fillColor=none;align=center;verticalAlign=middle;whiteSpace=wrap;rounded=0;" parent="1" vertex="1">
          <mxGeometry x="540" y="650" width="60" height="30" as="geometry" />
        </mxCell>
        <mxCell id="_iJNtNnt4_xQDbVP3RY3-122" style="edgeStyle=orthogonalEdgeStyle;rounded=0;orthogonalLoop=1;jettySize=auto;html=1;entryX=0.5;entryY=0;entryDx=0;entryDy=0;" parent="1" source="_iJNtNnt4_xQDbVP3RY3-36" target="_iJNtNnt4_xQDbVP3RY3-121" edge="1">
          <mxGeometry relative="1" as="geometry" />
        </mxCell>
        <mxCell id="_iJNtNnt4_xQDbVP3RY3-36" value="output d" style="shape=parallelogram;perimeter=parallelogramPerimeter;whiteSpace=wrap;html=1;fixedSize=1;" parent="1" vertex="1">
          <mxGeometry x="910" y="530" width="120" height="60" as="geometry" />
        </mxCell>
        <mxCell id="_iJNtNnt4_xQDbVP3RY3-92" value="" style="edgeStyle=orthogonalEdgeStyle;rounded=0;orthogonalLoop=1;jettySize=auto;html=1;" parent="1" source="_iJNtNnt4_xQDbVP3RY3-38" target="_iJNtNnt4_xQDbVP3RY3-91" edge="1">
          <mxGeometry relative="1" as="geometry" />
        </mxCell>
        <mxCell id="_iJNtNnt4_xQDbVP3RY3-102" value="" style="edgeStyle=orthogonalEdgeStyle;rounded=0;orthogonalLoop=1;jettySize=auto;html=1;" parent="1" source="_iJNtNnt4_xQDbVP3RY3-38" target="_iJNtNnt4_xQDbVP3RY3-101" edge="1">
          <mxGeometry relative="1" as="geometry" />
        </mxCell>
        <mxCell id="_iJNtNnt4_xQDbVP3RY3-38" value="case 3" style="rhombus;whiteSpace=wrap;html=1;" parent="1" vertex="1">
          <mxGeometry x="50" y="680" width="80" height="80" as="geometry" />
        </mxCell>
        <mxCell id="_iJNtNnt4_xQDbVP3RY3-43" value="" style="edgeStyle=orthogonalEdgeStyle;rounded=0;orthogonalLoop=1;jettySize=auto;html=1;" parent="1" source="_iJNtNnt4_xQDbVP3RY3-40" edge="1">
          <mxGeometry relative="1" as="geometry">
            <mxPoint x="410" y="-40" as="targetPoint" />
          </mxGeometry>
        </mxCell>
        <mxCell id="_iJNtNnt4_xQDbVP3RY3-40" value="snt (n)" style="shape=process;whiteSpace=wrap;html=1;backgroundOutline=1;" parent="1" vertex="1">
          <mxGeometry x="200" y="-70" width="120" height="60" as="geometry" />
        </mxCell>
        <mxCell id="_iJNtNnt4_xQDbVP3RY3-48" value="" style="edgeStyle=orthogonalEdgeStyle;rounded=0;orthogonalLoop=1;jettySize=auto;html=1;" parent="1" source="_iJNtNnt4_xQDbVP3RY3-46" target="_iJNtNnt4_xQDbVP3RY3-47" edge="1">
          <mxGeometry relative="1" as="geometry" />
        </mxCell>
        <mxCell id="_iJNtNnt4_xQDbVP3RY3-51" value="" style="edgeStyle=orthogonalEdgeStyle;rounded=0;orthogonalLoop=1;jettySize=auto;html=1;" parent="1" source="_iJNtNnt4_xQDbVP3RY3-46" target="_iJNtNnt4_xQDbVP3RY3-50" edge="1">
          <mxGeometry relative="1" as="geometry" />
        </mxCell>
        <mxCell id="_iJNtNnt4_xQDbVP3RY3-46" value="n&amp;lt;2" style="rhombus;whiteSpace=wrap;html=1;" parent="1" vertex="1">
          <mxGeometry x="410" y="-80" width="80" height="80" as="geometry" />
        </mxCell>
        <mxCell id="_iJNtNnt4_xQDbVP3RY3-87" style="edgeStyle=orthogonalEdgeStyle;rounded=0;orthogonalLoop=1;jettySize=auto;html=1;entryX=0;entryY=0.5;entryDx=0;entryDy=0;" parent="1" source="_iJNtNnt4_xQDbVP3RY3-47" target="_iJNtNnt4_xQDbVP3RY3-86" edge="1">
          <mxGeometry relative="1" as="geometry">
            <Array as="points">
              <mxPoint x="450" y="-350" />
              <mxPoint x="1550" y="-350" />
            </Array>
          </mxGeometry>
        </mxCell>
        <mxCell id="_iJNtNnt4_xQDbVP3RY3-47" value="output false" style="shape=parallelogram;perimeter=parallelogramPerimeter;whiteSpace=wrap;html=1;fixedSize=1;" parent="1" vertex="1">
          <mxGeometry x="390" y="-220" width="120" height="60" as="geometry" />
        </mxCell>
        <mxCell id="_iJNtNnt4_xQDbVP3RY3-49" value="true" style="text;html=1;strokeColor=none;fillColor=none;align=center;verticalAlign=middle;whiteSpace=wrap;rounded=0;" parent="1" vertex="1">
          <mxGeometry x="390" y="-130" width="60" height="30" as="geometry" />
        </mxCell>
        <mxCell id="_iJNtNnt4_xQDbVP3RY3-54" value="" style="edgeStyle=orthogonalEdgeStyle;rounded=0;orthogonalLoop=1;jettySize=auto;html=1;" parent="1" source="_iJNtNnt4_xQDbVP3RY3-50" target="_iJNtNnt4_xQDbVP3RY3-53" edge="1">
          <mxGeometry relative="1" as="geometry" />
        </mxCell>
        <mxCell id="_iJNtNnt4_xQDbVP3RY3-56" value="" style="edgeStyle=orthogonalEdgeStyle;rounded=0;orthogonalLoop=1;jettySize=auto;html=1;" parent="1" source="_iJNtNnt4_xQDbVP3RY3-50" target="_iJNtNnt4_xQDbVP3RY3-55" edge="1">
          <mxGeometry relative="1" as="geometry" />
        </mxCell>
        <mxCell id="_iJNtNnt4_xQDbVP3RY3-50" value="n == 2 || n == 3 || n == 5 || n == 7" style="rhombus;whiteSpace=wrap;html=1;" parent="1" vertex="1">
          <mxGeometry x="580" y="-125" width="260" height="170" as="geometry" />
        </mxCell>
        <mxCell id="_iJNtNnt4_xQDbVP3RY3-52" value="fasle" style="text;html=1;strokeColor=none;fillColor=none;align=center;verticalAlign=middle;whiteSpace=wrap;rounded=0;" parent="1" vertex="1">
          <mxGeometry x="490" y="-80" width="60" height="30" as="geometry" />
        </mxCell>
        <mxCell id="_iJNtNnt4_xQDbVP3RY3-88" style="edgeStyle=orthogonalEdgeStyle;rounded=0;orthogonalLoop=1;jettySize=auto;html=1;" parent="1" source="_iJNtNnt4_xQDbVP3RY3-53" edge="1">
          <mxGeometry relative="1" as="geometry">
            <mxPoint x="710" y="-350" as="targetPoint" />
          </mxGeometry>
        </mxCell>
        <mxCell id="_iJNtNnt4_xQDbVP3RY3-53" value="output true" style="shape=parallelogram;perimeter=parallelogramPerimeter;whiteSpace=wrap;html=1;fixedSize=1;" parent="1" vertex="1">
          <mxGeometry x="650" y="-270" width="120" height="60" as="geometry" />
        </mxCell>
        <mxCell id="_iJNtNnt4_xQDbVP3RY3-58" value="" style="edgeStyle=orthogonalEdgeStyle;rounded=0;orthogonalLoop=1;jettySize=auto;html=1;" parent="1" source="_iJNtNnt4_xQDbVP3RY3-55" target="_iJNtNnt4_xQDbVP3RY3-57" edge="1">
          <mxGeometry relative="1" as="geometry" />
        </mxCell>
        <mxCell id="_iJNtNnt4_xQDbVP3RY3-62" value="" style="edgeStyle=orthogonalEdgeStyle;rounded=0;orthogonalLoop=1;jettySize=auto;html=1;" parent="1" source="_iJNtNnt4_xQDbVP3RY3-55" target="_iJNtNnt4_xQDbVP3RY3-61" edge="1">
          <mxGeometry relative="1" as="geometry" />
        </mxCell>
        <mxCell id="_iJNtNnt4_xQDbVP3RY3-55" value="n%2 == 0 || n%3 == 0 || n%5 == 0 || n%7 ==0" style="rhombus;whiteSpace=wrap;html=1;" parent="1" vertex="1">
          <mxGeometry x="920" y="-125" width="260" height="170" as="geometry" />
        </mxCell>
        <mxCell id="_iJNtNnt4_xQDbVP3RY3-89" style="edgeStyle=orthogonalEdgeStyle;rounded=0;orthogonalLoop=1;jettySize=auto;html=1;" parent="1" source="_iJNtNnt4_xQDbVP3RY3-57" edge="1">
          <mxGeometry relative="1" as="geometry">
            <mxPoint x="1050" y="-350" as="targetPoint" />
          </mxGeometry>
        </mxCell>
        <mxCell id="_iJNtNnt4_xQDbVP3RY3-57" value="output false" style="shape=parallelogram;perimeter=parallelogramPerimeter;whiteSpace=wrap;html=1;fixedSize=1;" parent="1" vertex="1">
          <mxGeometry x="990" y="-270" width="120" height="60" as="geometry" />
        </mxCell>
        <mxCell id="_iJNtNnt4_xQDbVP3RY3-59" value="true" style="text;html=1;strokeColor=none;fillColor=none;align=center;verticalAlign=middle;whiteSpace=wrap;rounded=0;" parent="1" vertex="1">
          <mxGeometry x="640" y="-190" width="60" height="30" as="geometry" />
        </mxCell>
        <mxCell id="_iJNtNnt4_xQDbVP3RY3-60" value="true" style="text;html=1;strokeColor=none;fillColor=none;align=center;verticalAlign=middle;whiteSpace=wrap;rounded=0;" parent="1" vertex="1">
          <mxGeometry x="980" y="-180" width="60" height="30" as="geometry" />
        </mxCell>
        <mxCell id="_iJNtNnt4_xQDbVP3RY3-66" value="" style="edgeStyle=orthogonalEdgeStyle;rounded=0;orthogonalLoop=1;jettySize=auto;html=1;" parent="1" source="_iJNtNnt4_xQDbVP3RY3-61" target="_iJNtNnt4_xQDbVP3RY3-65" edge="1">
          <mxGeometry relative="1" as="geometry" />
        </mxCell>
        <mxCell id="_iJNtNnt4_xQDbVP3RY3-61" value="n = -1" style="whiteSpace=wrap;html=1;" parent="1" vertex="1">
          <mxGeometry x="1260" y="-70" width="120" height="60" as="geometry" />
        </mxCell>
        <mxCell id="_iJNtNnt4_xQDbVP3RY3-63" value="fasle" style="text;html=1;strokeColor=none;fillColor=none;align=center;verticalAlign=middle;whiteSpace=wrap;rounded=0;" parent="1" vertex="1">
          <mxGeometry x="850" y="-80" width="60" height="30" as="geometry" />
        </mxCell>
        <mxCell id="_iJNtNnt4_xQDbVP3RY3-64" value="false" style="text;html=1;strokeColor=none;fillColor=none;align=center;verticalAlign=middle;whiteSpace=wrap;rounded=0;" parent="1" vertex="1">
          <mxGeometry x="1190" y="-80" width="60" height="30" as="geometry" />
        </mxCell>
        <mxCell id="_iJNtNnt4_xQDbVP3RY3-68" value="" style="edgeStyle=orthogonalEdgeStyle;rounded=0;orthogonalLoop=1;jettySize=auto;html=1;" parent="1" source="_iJNtNnt4_xQDbVP3RY3-65" target="_iJNtNnt4_xQDbVP3RY3-67" edge="1">
          <mxGeometry relative="1" as="geometry" />
        </mxCell>
        <mxCell id="MkGP1JYkQHCnLpTFdyHZ-4" style="edgeStyle=orthogonalEdgeStyle;rounded=0;orthogonalLoop=1;jettySize=auto;html=1;entryX=1;entryY=0.5;entryDx=0;entryDy=0;" edge="1" parent="1" source="_iJNtNnt4_xQDbVP3RY3-65" target="_iJNtNnt4_xQDbVP3RY3-83">
          <mxGeometry relative="1" as="geometry">
            <Array as="points">
              <mxPoint x="1200" y="100" />
              <mxPoint x="1200" y="390" />
              <mxPoint x="1890" y="390" />
              <mxPoint x="1890" y="-30" />
            </Array>
          </mxGeometry>
        </mxCell>
        <mxCell id="_iJNtNnt4_xQDbVP3RY3-65" value="i&amp;lt;sqrt(n)" style="rhombus;whiteSpace=wrap;html=1;" parent="1" vertex="1">
          <mxGeometry x="1280" y="60" width="80" height="80" as="geometry" />
        </mxCell>
        <mxCell id="_iJNtNnt4_xQDbVP3RY3-79" value="" style="edgeStyle=orthogonalEdgeStyle;rounded=0;orthogonalLoop=1;jettySize=auto;html=1;" parent="1" source="_iJNtNnt4_xQDbVP3RY3-67" target="_iJNtNnt4_xQDbVP3RY3-69" edge="1">
          <mxGeometry relative="1" as="geometry" />
        </mxCell>
        <mxCell id="_iJNtNnt4_xQDbVP3RY3-67" value="i = i+6" style="whiteSpace=wrap;html=1;" parent="1" vertex="1">
          <mxGeometry x="1260" y="215" width="120" height="60" as="geometry" />
        </mxCell>
        <mxCell id="_iJNtNnt4_xQDbVP3RY3-78" value="" style="edgeStyle=orthogonalEdgeStyle;rounded=0;orthogonalLoop=1;jettySize=auto;html=1;" parent="1" source="_iJNtNnt4_xQDbVP3RY3-69" target="_iJNtNnt4_xQDbVP3RY3-71" edge="1">
          <mxGeometry relative="1" as="geometry" />
        </mxCell>
        <mxCell id="_iJNtNnt4_xQDbVP3RY3-80" style="edgeStyle=orthogonalEdgeStyle;rounded=0;orthogonalLoop=1;jettySize=auto;html=1;entryX=1;entryY=0.5;entryDx=0;entryDy=0;" parent="1" source="_iJNtNnt4_xQDbVP3RY3-69" target="_iJNtNnt4_xQDbVP3RY3-65" edge="1">
          <mxGeometry relative="1" as="geometry">
            <Array as="points">
              <mxPoint x="1560" y="100" />
            </Array>
          </mxGeometry>
        </mxCell>
        <mxCell id="_iJNtNnt4_xQDbVP3RY3-69" value="n%i == 0 || n%(i+2) == 0" style="rhombus;whiteSpace=wrap;html=1;" parent="1" vertex="1">
          <mxGeometry x="1480" y="170" width="150" height="150" as="geometry" />
        </mxCell>
        <mxCell id="_iJNtNnt4_xQDbVP3RY3-85" style="edgeStyle=orthogonalEdgeStyle;rounded=0;orthogonalLoop=1;jettySize=auto;html=1;entryX=0.5;entryY=1;entryDx=0;entryDy=0;" parent="1" source="_iJNtNnt4_xQDbVP3RY3-71" target="_iJNtNnt4_xQDbVP3RY3-86" edge="1">
          <mxGeometry relative="1" as="geometry">
            <Array as="points">
              <mxPoint x="1780" y="100" />
              <mxPoint x="1610" y="100" />
            </Array>
          </mxGeometry>
        </mxCell>
        <mxCell id="_iJNtNnt4_xQDbVP3RY3-71" value="output false" style="shape=parallelogram;perimeter=parallelogramPerimeter;whiteSpace=wrap;html=1;fixedSize=1;" parent="1" vertex="1">
          <mxGeometry x="1720" y="220" width="120" height="55" as="geometry" />
        </mxCell>
        <mxCell id="_iJNtNnt4_xQDbVP3RY3-73" value="true" style="text;html=1;strokeColor=none;fillColor=none;align=center;verticalAlign=middle;whiteSpace=wrap;rounded=0;" parent="1" vertex="1">
          <mxGeometry x="1650" y="260" width="60" height="30" as="geometry" />
        </mxCell>
        <mxCell id="_iJNtNnt4_xQDbVP3RY3-81" value="false" style="text;html=1;strokeColor=none;fillColor=none;align=center;verticalAlign=middle;whiteSpace=wrap;rounded=0;" parent="1" vertex="1">
          <mxGeometry x="1420" y="60" width="60" height="30" as="geometry" />
        </mxCell>
        <mxCell id="_iJNtNnt4_xQDbVP3RY3-90" style="edgeStyle=orthogonalEdgeStyle;rounded=0;orthogonalLoop=1;jettySize=auto;html=1;entryX=1;entryY=0.5;entryDx=0;entryDy=0;" parent="1" source="_iJNtNnt4_xQDbVP3RY3-83" target="_iJNtNnt4_xQDbVP3RY3-86" edge="1">
          <mxGeometry relative="1" as="geometry">
            <Array as="points">
              <mxPoint x="1780" y="-280" />
            </Array>
          </mxGeometry>
        </mxCell>
        <mxCell id="_iJNtNnt4_xQDbVP3RY3-83" value="output true" style="shape=parallelogram;perimeter=parallelogramPerimeter;whiteSpace=wrap;html=1;fixedSize=1;" parent="1" vertex="1">
          <mxGeometry x="1720" y="-60" width="120" height="60" as="geometry" />
        </mxCell>
        <mxCell id="_iJNtNnt4_xQDbVP3RY3-86" value="end" style="ellipse;whiteSpace=wrap;html=1;" parent="1" vertex="1">
          <mxGeometry x="1550" y="-320" width="120" height="80" as="geometry" />
        </mxCell>
        <mxCell id="_iJNtNnt4_xQDbVP3RY3-94" value="" style="edgeStyle=orthogonalEdgeStyle;rounded=0;orthogonalLoop=1;jettySize=auto;html=1;" parent="1" source="_iJNtNnt4_xQDbVP3RY3-91" target="_iJNtNnt4_xQDbVP3RY3-93" edge="1">
          <mxGeometry relative="1" as="geometry" />
        </mxCell>
        <mxCell id="_iJNtNnt4_xQDbVP3RY3-96" style="edgeStyle=orthogonalEdgeStyle;rounded=0;orthogonalLoop=1;jettySize=auto;html=1;entryX=0;entryY=0.5;entryDx=0;entryDy=0;" parent="1" source="_iJNtNnt4_xQDbVP3RY3-91" target="_iJNtNnt4_xQDbVP3RY3-95" edge="1">
          <mxGeometry relative="1" as="geometry">
            <Array as="points">
              <mxPoint x="210" y="800" />
            </Array>
          </mxGeometry>
        </mxCell>
        <mxCell id="_iJNtNnt4_xQDbVP3RY3-91" value="snt(n) == true" style="rhombus;whiteSpace=wrap;html=1;" parent="1" vertex="1">
          <mxGeometry x="170" y="680" width="80" height="80" as="geometry" />
        </mxCell>
        <mxCell id="_iJNtNnt4_xQDbVP3RY3-124" style="edgeStyle=orthogonalEdgeStyle;rounded=0;orthogonalLoop=1;jettySize=auto;html=1;" parent="1" source="_iJNtNnt4_xQDbVP3RY3-93" edge="1">
          <mxGeometry relative="1" as="geometry">
            <mxPoint x="2080" y="720" as="targetPoint" />
          </mxGeometry>
        </mxCell>
        <mxCell id="_iJNtNnt4_xQDbVP3RY3-93" value="la so nguyen to" style="shape=parallelogram;perimeter=parallelogramPerimeter;whiteSpace=wrap;html=1;fixedSize=1;" parent="1" vertex="1">
          <mxGeometry x="310" y="690" width="120" height="60" as="geometry" />
        </mxCell>
        <mxCell id="_iJNtNnt4_xQDbVP3RY3-123" style="edgeStyle=orthogonalEdgeStyle;rounded=0;orthogonalLoop=1;jettySize=auto;html=1;" parent="1" source="_iJNtNnt4_xQDbVP3RY3-95" edge="1">
          <mxGeometry relative="1" as="geometry">
            <mxPoint x="2080" y="800" as="targetPoint" />
          </mxGeometry>
        </mxCell>
        <mxCell id="_iJNtNnt4_xQDbVP3RY3-95" value="khong phai&lt;br&gt;&amp;nbsp;so nguyen to" style="shape=parallelogram;perimeter=parallelogramPerimeter;whiteSpace=wrap;html=1;fixedSize=1;" parent="1" vertex="1">
          <mxGeometry x="290" y="770" width="120" height="60" as="geometry" />
        </mxCell>
        <mxCell id="_iJNtNnt4_xQDbVP3RY3-97" value="true" style="text;html=1;strokeColor=none;fillColor=none;align=center;verticalAlign=middle;whiteSpace=wrap;rounded=0;" parent="1" vertex="1">
          <mxGeometry x="250" y="690" width="60" height="30" as="geometry" />
        </mxCell>
        <mxCell id="_iJNtNnt4_xQDbVP3RY3-98" value="false" style="text;html=1;strokeColor=none;fillColor=none;align=center;verticalAlign=middle;whiteSpace=wrap;rounded=0;" parent="1" vertex="1">
          <mxGeometry x="220" y="770" width="60" height="30" as="geometry" />
        </mxCell>
        <mxCell id="_iJNtNnt4_xQDbVP3RY3-112" value="" style="edgeStyle=orthogonalEdgeStyle;rounded=0;orthogonalLoop=1;jettySize=auto;html=1;" parent="1" source="_iJNtNnt4_xQDbVP3RY3-101" target="_iJNtNnt4_xQDbVP3RY3-111" edge="1">
          <mxGeometry relative="1" as="geometry" />
        </mxCell>
        <mxCell id="_iJNtNnt4_xQDbVP3RY3-136" value="" style="edgeStyle=orthogonalEdgeStyle;rounded=0;orthogonalLoop=1;jettySize=auto;html=1;" parent="1" source="_iJNtNnt4_xQDbVP3RY3-101" target="_iJNtNnt4_xQDbVP3RY3-135" edge="1">
          <mxGeometry relative="1" as="geometry" />
        </mxCell>
        <mxCell id="_iJNtNnt4_xQDbVP3RY3-101" value="case 4" style="rhombus;whiteSpace=wrap;html=1;" parent="1" vertex="1">
          <mxGeometry x="50" y="900" width="80" height="80" as="geometry" />
        </mxCell>
        <mxCell id="_iJNtNnt4_xQDbVP3RY3-114" value="" style="edgeStyle=orthogonalEdgeStyle;rounded=0;orthogonalLoop=1;jettySize=auto;html=1;" parent="1" source="_iJNtNnt4_xQDbVP3RY3-111" edge="1">
          <mxGeometry relative="1" as="geometry">
            <mxPoint x="310" y="940" as="targetPoint" />
          </mxGeometry>
        </mxCell>
        <mxCell id="_iJNtNnt4_xQDbVP3RY3-131" style="edgeStyle=orthogonalEdgeStyle;rounded=0;orthogonalLoop=1;jettySize=auto;html=1;entryX=0.5;entryY=1;entryDx=0;entryDy=0;" parent="1" source="_iJNtNnt4_xQDbVP3RY3-111" target="_iJNtNnt4_xQDbVP3RY3-121" edge="1">
          <mxGeometry relative="1" as="geometry">
            <Array as="points">
              <mxPoint x="210" y="1070" />
              <mxPoint x="2070" y="1070" />
            </Array>
          </mxGeometry>
        </mxCell>
        <mxCell id="_iJNtNnt4_xQDbVP3RY3-111" value="i&amp;lt;n" style="rhombus;whiteSpace=wrap;html=1;" parent="1" vertex="1">
          <mxGeometry x="170" y="900" width="80" height="80" as="geometry" />
        </mxCell>
        <mxCell id="_iJNtNnt4_xQDbVP3RY3-117" value="" style="edgeStyle=orthogonalEdgeStyle;rounded=0;orthogonalLoop=1;jettySize=auto;html=1;" parent="1" source="_iJNtNnt4_xQDbVP3RY3-115" target="_iJNtNnt4_xQDbVP3RY3-116" edge="1">
          <mxGeometry relative="1" as="geometry" />
        </mxCell>
        <mxCell id="_iJNtNnt4_xQDbVP3RY3-130" style="edgeStyle=orthogonalEdgeStyle;rounded=0;orthogonalLoop=1;jettySize=auto;html=1;entryX=0.5;entryY=1;entryDx=0;entryDy=0;" parent="1" source="_iJNtNnt4_xQDbVP3RY3-115" target="_iJNtNnt4_xQDbVP3RY3-141" edge="1">
          <mxGeometry relative="1" as="geometry">
            <mxPoint x="920" y="980" as="targetPoint" />
            <Array as="points">
              <mxPoint x="350" y="1030" />
              <mxPoint x="710" y="1030" />
            </Array>
          </mxGeometry>
        </mxCell>
        <mxCell id="_iJNtNnt4_xQDbVP3RY3-115" value="n%i=0" style="rhombus;whiteSpace=wrap;html=1;" parent="1" vertex="1">
          <mxGeometry x="310" y="900" width="80" height="80" as="geometry" />
        </mxCell>
        <mxCell id="_iJNtNnt4_xQDbVP3RY3-119" value="" style="edgeStyle=orthogonalEdgeStyle;rounded=0;orthogonalLoop=1;jettySize=auto;html=1;" parent="1" source="_iJNtNnt4_xQDbVP3RY3-116" edge="1">
          <mxGeometry relative="1" as="geometry">
            <mxPoint x="650" y="940" as="targetPoint" />
          </mxGeometry>
        </mxCell>
        <mxCell id="_iJNtNnt4_xQDbVP3RY3-116" value="sum +=i" style="whiteSpace=wrap;html=1;" parent="1" vertex="1">
          <mxGeometry x="450" y="910" width="120" height="60" as="geometry" />
        </mxCell>
        <mxCell id="_iJNtNnt4_xQDbVP3RY3-129" style="edgeStyle=orthogonalEdgeStyle;rounded=0;orthogonalLoop=1;jettySize=auto;html=1;entryX=0.5;entryY=0;entryDx=0;entryDy=0;exitX=0.5;exitY=0;exitDx=0;exitDy=0;" parent="1" source="_iJNtNnt4_xQDbVP3RY3-141" target="_iJNtNnt4_xQDbVP3RY3-111" edge="1">
          <mxGeometry relative="1" as="geometry">
            <mxPoint x="710" y="910" as="sourcePoint" />
            <Array as="points">
              <mxPoint x="710" y="860" />
              <mxPoint x="210" y="860" />
            </Array>
          </mxGeometry>
        </mxCell>
        <mxCell id="_iJNtNnt4_xQDbVP3RY3-120" value="true" style="text;html=1;strokeColor=none;fillColor=none;align=center;verticalAlign=middle;whiteSpace=wrap;rounded=0;" parent="1" vertex="1">
          <mxGeometry x="250" y="910" width="60" height="30" as="geometry" />
        </mxCell>
        <mxCell id="_iJNtNnt4_xQDbVP3RY3-121" value="end" style="ellipse;whiteSpace=wrap;html=1;" parent="1" vertex="1">
          <mxGeometry x="2010" y="900" width="120" height="80" as="geometry" />
        </mxCell>
        <mxCell id="_iJNtNnt4_xQDbVP3RY3-126" value="fasle" style="text;html=1;strokeColor=none;fillColor=none;align=center;verticalAlign=middle;whiteSpace=wrap;rounded=0;" parent="1" vertex="1">
          <mxGeometry x="250" y="410" width="60" height="30" as="geometry" />
        </mxCell>
        <mxCell id="_iJNtNnt4_xQDbVP3RY3-128" value="false" style="text;html=1;strokeColor=none;fillColor=none;align=center;verticalAlign=middle;whiteSpace=wrap;rounded=0;" parent="1" vertex="1">
          <mxGeometry x="250" y="630" width="60" height="30" as="geometry" />
        </mxCell>
        <mxCell id="_iJNtNnt4_xQDbVP3RY3-132" value="false" style="text;html=1;strokeColor=none;fillColor=none;align=center;verticalAlign=middle;whiteSpace=wrap;rounded=0;" parent="1" vertex="1">
          <mxGeometry x="250" y="1040" width="60" height="30" as="geometry" />
        </mxCell>
        <mxCell id="_iJNtNnt4_xQDbVP3RY3-133" value="false" style="text;html=1;strokeColor=none;fillColor=none;align=center;verticalAlign=middle;whiteSpace=wrap;rounded=0;" parent="1" vertex="1">
          <mxGeometry x="470" y="1000" width="60" height="30" as="geometry" />
        </mxCell>
        <mxCell id="_iJNtNnt4_xQDbVP3RY3-134" value="true" style="text;html=1;strokeColor=none;fillColor=none;align=center;verticalAlign=middle;whiteSpace=wrap;rounded=0;" parent="1" vertex="1">
          <mxGeometry x="380" y="910" width="60" height="30" as="geometry" />
        </mxCell>
        <mxCell id="_iJNtNnt4_xQDbVP3RY3-138" value="" style="edgeStyle=orthogonalEdgeStyle;rounded=0;orthogonalLoop=1;jettySize=auto;html=1;" parent="1" source="_iJNtNnt4_xQDbVP3RY3-135" target="_iJNtNnt4_xQDbVP3RY3-137" edge="1">
          <mxGeometry relative="1" as="geometry" />
        </mxCell>
        <mxCell id="_iJNtNnt4_xQDbVP3RY3-168" value="" style="edgeStyle=orthogonalEdgeStyle;rounded=0;orthogonalLoop=1;jettySize=auto;html=1;" parent="1" source="_iJNtNnt4_xQDbVP3RY3-135" target="_iJNtNnt4_xQDbVP3RY3-167" edge="1">
          <mxGeometry relative="1" as="geometry" />
        </mxCell>
        <mxCell id="_iJNtNnt4_xQDbVP3RY3-135" value="case 5" style="rhombus;whiteSpace=wrap;html=1;" parent="1" vertex="1">
          <mxGeometry x="50" y="1120" width="80" height="80" as="geometry" />
        </mxCell>
        <mxCell id="_iJNtNnt4_xQDbVP3RY3-140" value="" style="edgeStyle=orthogonalEdgeStyle;rounded=0;orthogonalLoop=1;jettySize=auto;html=1;" parent="1" source="_iJNtNnt4_xQDbVP3RY3-137" target="_iJNtNnt4_xQDbVP3RY3-139" edge="1">
          <mxGeometry relative="1" as="geometry" />
        </mxCell>
        <mxCell id="_iJNtNnt4_xQDbVP3RY3-164" style="edgeStyle=orthogonalEdgeStyle;rounded=0;orthogonalLoop=1;jettySize=auto;html=1;" parent="1" source="_iJNtNnt4_xQDbVP3RY3-137" edge="1">
          <mxGeometry relative="1" as="geometry">
            <mxPoint x="2072.2856794084823" y="1060.0000000000005" as="targetPoint" />
            <Array as="points">
              <mxPoint x="210" y="1250" />
              <mxPoint x="2072" y="1250" />
            </Array>
          </mxGeometry>
        </mxCell>
        <mxCell id="_iJNtNnt4_xQDbVP3RY3-137" value="i&amp;lt;n" style="rhombus;whiteSpace=wrap;html=1;" parent="1" vertex="1">
          <mxGeometry x="170" y="1120" width="80" height="80" as="geometry" />
        </mxCell>
        <mxCell id="_iJNtNnt4_xQDbVP3RY3-153" value="" style="edgeStyle=orthogonalEdgeStyle;rounded=0;orthogonalLoop=1;jettySize=auto;html=1;" parent="1" source="_iJNtNnt4_xQDbVP3RY3-139" target="_iJNtNnt4_xQDbVP3RY3-152" edge="1">
          <mxGeometry relative="1" as="geometry" />
        </mxCell>
        <mxCell id="_iJNtNnt4_xQDbVP3RY3-160" style="edgeStyle=orthogonalEdgeStyle;rounded=0;orthogonalLoop=1;jettySize=auto;html=1;entryX=0.5;entryY=1;entryDx=0;entryDy=0;" parent="1" source="_iJNtNnt4_xQDbVP3RY3-139" target="_iJNtNnt4_xQDbVP3RY3-156" edge="1">
          <mxGeometry relative="1" as="geometry">
            <Array as="points">
              <mxPoint x="340" y="1210" />
              <mxPoint x="700" y="1210" />
            </Array>
          </mxGeometry>
        </mxCell>
        <mxCell id="_iJNtNnt4_xQDbVP3RY3-139" value="n%i == 0" style="rhombus;whiteSpace=wrap;html=1;" parent="1" vertex="1">
          <mxGeometry x="300" y="1120" width="80" height="80" as="geometry" />
        </mxCell>
        <mxCell id="_iJNtNnt4_xQDbVP3RY3-143" value="" style="edgeStyle=orthogonalEdgeStyle;rounded=0;orthogonalLoop=1;jettySize=auto;html=1;" parent="1" source="_iJNtNnt4_xQDbVP3RY3-141" target="_iJNtNnt4_xQDbVP3RY3-142" edge="1">
          <mxGeometry relative="1" as="geometry" />
        </mxCell>
        <mxCell id="_iJNtNnt4_xQDbVP3RY3-141" value="i++" style="whiteSpace=wrap;html=1;" parent="1" vertex="1">
          <mxGeometry x="650" y="910" width="120" height="60" as="geometry" />
        </mxCell>
        <mxCell id="_iJNtNnt4_xQDbVP3RY3-146" style="edgeStyle=orthogonalEdgeStyle;rounded=0;orthogonalLoop=1;jettySize=auto;html=1;entryX=0;entryY=0.25;entryDx=0;entryDy=0;" parent="1" source="_iJNtNnt4_xQDbVP3RY3-142" target="_iJNtNnt4_xQDbVP3RY3-144" edge="1">
          <mxGeometry relative="1" as="geometry">
            <Array as="points">
              <mxPoint x="910" y="859" />
            </Array>
          </mxGeometry>
        </mxCell>
        <mxCell id="_iJNtNnt4_xQDbVP3RY3-147" style="edgeStyle=orthogonalEdgeStyle;rounded=0;orthogonalLoop=1;jettySize=auto;html=1;entryX=0;entryY=0.5;entryDx=0;entryDy=0;" parent="1" source="_iJNtNnt4_xQDbVP3RY3-142" target="_iJNtNnt4_xQDbVP3RY3-145" edge="1">
          <mxGeometry relative="1" as="geometry">
            <Array as="points">
              <mxPoint x="910" y="1000" />
            </Array>
          </mxGeometry>
        </mxCell>
        <mxCell id="_iJNtNnt4_xQDbVP3RY3-142" value="sum == n" style="rhombus;whiteSpace=wrap;html=1;" parent="1" vertex="1">
          <mxGeometry x="870" y="900" width="80" height="80" as="geometry" />
        </mxCell>
        <mxCell id="_iJNtNnt4_xQDbVP3RY3-150" style="edgeStyle=orthogonalEdgeStyle;rounded=0;orthogonalLoop=1;jettySize=auto;html=1;" parent="1" source="_iJNtNnt4_xQDbVP3RY3-144" edge="1">
          <mxGeometry relative="1" as="geometry">
            <mxPoint x="2070" y="870" as="targetPoint" />
          </mxGeometry>
        </mxCell>
        <mxCell id="_iJNtNnt4_xQDbVP3RY3-144" value="la so hoan hao" style="shape=parallelogram;perimeter=parallelogramPerimeter;whiteSpace=wrap;html=1;fixedSize=1;" parent="1" vertex="1">
          <mxGeometry x="1000" y="840" width="120" height="60" as="geometry" />
        </mxCell>
        <mxCell id="_iJNtNnt4_xQDbVP3RY3-151" style="edgeStyle=orthogonalEdgeStyle;rounded=0;orthogonalLoop=1;jettySize=auto;html=1;" parent="1" source="_iJNtNnt4_xQDbVP3RY3-145" edge="1">
          <mxGeometry relative="1" as="geometry">
            <mxPoint x="2070" y="1000" as="targetPoint" />
          </mxGeometry>
        </mxCell>
        <mxCell id="_iJNtNnt4_xQDbVP3RY3-145" value="khong phai so&amp;nbsp;&lt;br&gt;hoan hao" style="shape=parallelogram;perimeter=parallelogramPerimeter;whiteSpace=wrap;html=1;fixedSize=1;" parent="1" vertex="1">
          <mxGeometry x="990" y="970" width="120" height="60" as="geometry" />
        </mxCell>
        <mxCell id="_iJNtNnt4_xQDbVP3RY3-148" value="true" style="text;html=1;strokeColor=none;fillColor=none;align=center;verticalAlign=middle;whiteSpace=wrap;rounded=0;" parent="1" vertex="1">
          <mxGeometry x="940" y="830" width="60" height="30" as="geometry" />
        </mxCell>
        <mxCell id="_iJNtNnt4_xQDbVP3RY3-149" value="fasle" style="text;html=1;strokeColor=none;fillColor=none;align=center;verticalAlign=middle;whiteSpace=wrap;rounded=0;" parent="1" vertex="1">
          <mxGeometry x="930" y="970" width="60" height="30" as="geometry" />
        </mxCell>
        <mxCell id="_iJNtNnt4_xQDbVP3RY3-155" value="" style="edgeStyle=orthogonalEdgeStyle;rounded=0;orthogonalLoop=1;jettySize=auto;html=1;" parent="1" source="_iJNtNnt4_xQDbVP3RY3-152" edge="1">
          <mxGeometry relative="1" as="geometry">
            <mxPoint x="640" y="1160" as="targetPoint" />
          </mxGeometry>
        </mxCell>
        <mxCell id="_iJNtNnt4_xQDbVP3RY3-152" value="sum +=i" style="whiteSpace=wrap;html=1;" parent="1" vertex="1">
          <mxGeometry x="440" y="1130" width="120" height="60" as="geometry" />
        </mxCell>
        <mxCell id="_iJNtNnt4_xQDbVP3RY3-158" value="" style="edgeStyle=orthogonalEdgeStyle;rounded=0;orthogonalLoop=1;jettySize=auto;html=1;" parent="1" source="_iJNtNnt4_xQDbVP3RY3-156" target="_iJNtNnt4_xQDbVP3RY3-157" edge="1">
          <mxGeometry relative="1" as="geometry" />
        </mxCell>
        <mxCell id="_iJNtNnt4_xQDbVP3RY3-159" style="edgeStyle=orthogonalEdgeStyle;rounded=0;orthogonalLoop=1;jettySize=auto;html=1;entryX=0.5;entryY=0;entryDx=0;entryDy=0;" parent="1" source="_iJNtNnt4_xQDbVP3RY3-156" target="_iJNtNnt4_xQDbVP3RY3-137" edge="1">
          <mxGeometry relative="1" as="geometry">
            <Array as="points">
              <mxPoint x="700" y="1100" />
              <mxPoint x="210" y="1100" />
            </Array>
          </mxGeometry>
        </mxCell>
        <mxCell id="_iJNtNnt4_xQDbVP3RY3-156" value="i++" style="whiteSpace=wrap;html=1;" parent="1" vertex="1">
          <mxGeometry x="640" y="1130" width="120" height="60" as="geometry" />
        </mxCell>
        <mxCell id="_iJNtNnt4_xQDbVP3RY3-165" style="edgeStyle=orthogonalEdgeStyle;rounded=0;orthogonalLoop=1;jettySize=auto;html=1;" parent="1" source="_iJNtNnt4_xQDbVP3RY3-157" edge="1">
          <mxGeometry relative="1" as="geometry">
            <mxPoint x="2071.1429268973216" y="1159.9999999999995" as="targetPoint" />
          </mxGeometry>
        </mxCell>
        <mxCell id="_iJNtNnt4_xQDbVP3RY3-157" value="output sum" style="shape=parallelogram;perimeter=parallelogramPerimeter;whiteSpace=wrap;html=1;fixedSize=1;" parent="1" vertex="1">
          <mxGeometry x="840" y="1130" width="120" height="60" as="geometry" />
        </mxCell>
        <mxCell id="_iJNtNnt4_xQDbVP3RY3-161" value="true" style="text;html=1;strokeColor=none;fillColor=none;align=center;verticalAlign=middle;whiteSpace=wrap;rounded=0;" parent="1" vertex="1">
          <mxGeometry x="240" y="1130" width="60" height="30" as="geometry" />
        </mxCell>
        <mxCell id="_iJNtNnt4_xQDbVP3RY3-162" value="true" style="text;html=1;strokeColor=none;fillColor=none;align=center;verticalAlign=middle;whiteSpace=wrap;rounded=0;" parent="1" vertex="1">
          <mxGeometry x="370" y="1130" width="60" height="30" as="geometry" />
        </mxCell>
        <mxCell id="_iJNtNnt4_xQDbVP3RY3-163" value="false" style="text;html=1;strokeColor=none;fillColor=none;align=center;verticalAlign=middle;whiteSpace=wrap;rounded=0;" parent="1" vertex="1">
          <mxGeometry x="370" y="1190" width="60" height="30" as="geometry" />
        </mxCell>
        <mxCell id="_iJNtNnt4_xQDbVP3RY3-166" value="false" style="text;html=1;strokeColor=none;fillColor=none;align=center;verticalAlign=middle;whiteSpace=wrap;rounded=0;" parent="1" vertex="1">
          <mxGeometry x="250" y="1220" width="60" height="30" as="geometry" />
        </mxCell>
        <mxCell id="_iJNtNnt4_xQDbVP3RY3-170" value="" style="edgeStyle=orthogonalEdgeStyle;rounded=0;orthogonalLoop=1;jettySize=auto;html=1;" parent="1" source="_iJNtNnt4_xQDbVP3RY3-167" target="_iJNtNnt4_xQDbVP3RY3-169" edge="1">
          <mxGeometry relative="1" as="geometry" />
        </mxCell>
        <mxCell id="_iJNtNnt4_xQDbVP3RY3-184" style="edgeStyle=orthogonalEdgeStyle;rounded=0;orthogonalLoop=1;jettySize=auto;html=1;entryX=0.5;entryY=0;entryDx=0;entryDy=0;" parent="1" source="_iJNtNnt4_xQDbVP3RY3-167" target="_iJNtNnt4_xQDbVP3RY3-183" edge="1">
          <mxGeometry relative="1" as="geometry" />
        </mxCell>
        <mxCell id="_iJNtNnt4_xQDbVP3RY3-167" value="case 6" style="rhombus;whiteSpace=wrap;html=1;" parent="1" vertex="1">
          <mxGeometry x="50" y="1360" width="80" height="80" as="geometry" />
        </mxCell>
        <mxCell id="_iJNtNnt4_xQDbVP3RY3-173" value="" style="edgeStyle=orthogonalEdgeStyle;rounded=0;orthogonalLoop=1;jettySize=auto;html=1;" parent="1" source="_iJNtNnt4_xQDbVP3RY3-169" target="_iJNtNnt4_xQDbVP3RY3-171" edge="1">
          <mxGeometry relative="1" as="geometry" />
        </mxCell>
        <mxCell id="_iJNtNnt4_xQDbVP3RY3-179" style="edgeStyle=orthogonalEdgeStyle;rounded=0;orthogonalLoop=1;jettySize=auto;html=1;" parent="1" source="_iJNtNnt4_xQDbVP3RY3-169" edge="1">
          <mxGeometry relative="1" as="geometry">
            <mxPoint x="2071.8824678308824" y="1250" as="targetPoint" />
            <Array as="points">
              <mxPoint x="210" y="1510" />
              <mxPoint x="2072" y="1510" />
            </Array>
          </mxGeometry>
        </mxCell>
        <mxCell id="_iJNtNnt4_xQDbVP3RY3-169" value="i&amp;lt;=n" style="rhombus;whiteSpace=wrap;html=1;" parent="1" vertex="1">
          <mxGeometry x="170" y="1360" width="80" height="80" as="geometry" />
        </mxCell>
        <mxCell id="_iJNtNnt4_xQDbVP3RY3-174" value="" style="edgeStyle=orthogonalEdgeStyle;rounded=0;orthogonalLoop=1;jettySize=auto;html=1;" parent="1" source="_iJNtNnt4_xQDbVP3RY3-171" target="_iJNtNnt4_xQDbVP3RY3-172" edge="1">
          <mxGeometry relative="1" as="geometry" />
        </mxCell>
        <mxCell id="_iJNtNnt4_xQDbVP3RY3-171" value="sum *= i" style="rhombus;whiteSpace=wrap;html=1;" parent="1" vertex="1">
          <mxGeometry x="300" y="1360" width="80" height="80" as="geometry" />
        </mxCell>
        <mxCell id="_iJNtNnt4_xQDbVP3RY3-178" value="" style="edgeStyle=orthogonalEdgeStyle;rounded=0;orthogonalLoop=1;jettySize=auto;html=1;" parent="1" source="_iJNtNnt4_xQDbVP3RY3-172" target="_iJNtNnt4_xQDbVP3RY3-177" edge="1">
          <mxGeometry relative="1" as="geometry" />
        </mxCell>
        <mxCell id="_iJNtNnt4_xQDbVP3RY3-172" value="i++" style="rounded=0;whiteSpace=wrap;html=1;" parent="1" vertex="1">
          <mxGeometry x="440" y="1370" width="120" height="60" as="geometry" />
        </mxCell>
        <mxCell id="_iJNtNnt4_xQDbVP3RY3-175" value="true" style="text;html=1;strokeColor=none;fillColor=none;align=center;verticalAlign=middle;whiteSpace=wrap;rounded=0;" parent="1" vertex="1">
          <mxGeometry x="240" y="1370" width="60" height="30" as="geometry" />
        </mxCell>
        <mxCell id="_iJNtNnt4_xQDbVP3RY3-176" value="true" style="text;html=1;strokeColor=none;fillColor=none;align=center;verticalAlign=middle;whiteSpace=wrap;rounded=0;" parent="1" vertex="1">
          <mxGeometry x="380" y="1370" width="60" height="30" as="geometry" />
        </mxCell>
        <mxCell id="_iJNtNnt4_xQDbVP3RY3-180" style="edgeStyle=orthogonalEdgeStyle;rounded=0;orthogonalLoop=1;jettySize=auto;html=1;" parent="1" source="_iJNtNnt4_xQDbVP3RY3-177" edge="1">
          <mxGeometry relative="1" as="geometry">
            <mxPoint x="2070" y="1400" as="targetPoint" />
          </mxGeometry>
        </mxCell>
        <mxCell id="_iJNtNnt4_xQDbVP3RY3-181" style="edgeStyle=orthogonalEdgeStyle;rounded=0;orthogonalLoop=1;jettySize=auto;html=1;entryX=0.5;entryY=0;entryDx=0;entryDy=0;" parent="1" source="_iJNtNnt4_xQDbVP3RY3-177" target="_iJNtNnt4_xQDbVP3RY3-169" edge="1">
          <mxGeometry relative="1" as="geometry">
            <Array as="points">
              <mxPoint x="700" y="1340" />
              <mxPoint x="210" y="1340" />
            </Array>
          </mxGeometry>
        </mxCell>
        <mxCell id="_iJNtNnt4_xQDbVP3RY3-177" value="ouput sum" style="shape=parallelogram;perimeter=parallelogramPerimeter;whiteSpace=wrap;html=1;fixedSize=1;" parent="1" vertex="1">
          <mxGeometry x="640" y="1370" width="120" height="60" as="geometry" />
        </mxCell>
        <mxCell id="_iJNtNnt4_xQDbVP3RY3-182" value="false" style="text;html=1;strokeColor=none;fillColor=none;align=center;verticalAlign=middle;whiteSpace=wrap;rounded=0;" parent="1" vertex="1">
          <mxGeometry x="260" y="1470" width="60" height="30" as="geometry" />
        </mxCell>
        <mxCell id="_iJNtNnt4_xQDbVP3RY3-199" style="edgeStyle=orthogonalEdgeStyle;rounded=0;orthogonalLoop=1;jettySize=auto;html=1;" parent="1" source="_iJNtNnt4_xQDbVP3RY3-183" edge="1">
          <mxGeometry relative="1" as="geometry">
            <mxPoint x="200" y="1660.0000000000005" as="targetPoint" />
          </mxGeometry>
        </mxCell>
        <mxCell id="_iJNtNnt4_xQDbVP3RY3-203" value="" style="edgeStyle=orthogonalEdgeStyle;rounded=0;orthogonalLoop=1;jettySize=auto;html=1;" parent="1" source="_iJNtNnt4_xQDbVP3RY3-183" target="_iJNtNnt4_xQDbVP3RY3-202" edge="1">
          <mxGeometry relative="1" as="geometry" />
        </mxCell>
        <mxCell id="_iJNtNnt4_xQDbVP3RY3-183" value="case 7" style="rhombus;whiteSpace=wrap;html=1;" parent="1" vertex="1">
          <mxGeometry x="50" y="1620" width="80" height="80" as="geometry" />
        </mxCell>
        <mxCell id="_iJNtNnt4_xQDbVP3RY3-187" style="edgeStyle=orthogonalEdgeStyle;rounded=0;orthogonalLoop=1;jettySize=auto;html=1;" parent="1" source="_iJNtNnt4_xQDbVP3RY3-185" edge="1">
          <mxGeometry relative="1" as="geometry">
            <mxPoint x="90" y="-550" as="targetPoint" />
          </mxGeometry>
        </mxCell>
        <mxCell id="_iJNtNnt4_xQDbVP3RY3-185" value="reverse(n)" style="shape=process;whiteSpace=wrap;html=1;backgroundOutline=1;" parent="1" vertex="1">
          <mxGeometry x="30" y="-290" width="120" height="60" as="geometry" />
        </mxCell>
        <mxCell id="_iJNtNnt4_xQDbVP3RY3-189" style="edgeStyle=orthogonalEdgeStyle;rounded=0;orthogonalLoop=1;jettySize=auto;html=1;" parent="1" source="_iJNtNnt4_xQDbVP3RY3-188" edge="1">
          <mxGeometry relative="1" as="geometry">
            <mxPoint x="90" y="-780" as="targetPoint" />
          </mxGeometry>
        </mxCell>
        <mxCell id="MkGP1JYkQHCnLpTFdyHZ-2" style="edgeStyle=orthogonalEdgeStyle;rounded=0;orthogonalLoop=1;jettySize=auto;html=1;entryX=0.5;entryY=0;entryDx=0;entryDy=0;" edge="1" parent="1" source="_iJNtNnt4_xQDbVP3RY3-188" target="_iJNtNnt4_xQDbVP3RY3-196">
          <mxGeometry relative="1" as="geometry">
            <Array as="points">
              <mxPoint x="10" y="-590" />
              <mxPoint x="10" y="-920" />
              <mxPoint x="430" y="-920" />
            </Array>
          </mxGeometry>
        </mxCell>
        <mxCell id="_iJNtNnt4_xQDbVP3RY3-188" value="n&amp;gt;0" style="rhombus;whiteSpace=wrap;html=1;points=[[0,0,0,0,0],[0,0.5,0,0,0],[0,1,0,0,0],[0.5,0,0,0,0],[0.5,1,0,0,0],[0.96,1,0,0,3],[1,0,0,0,0],[1,0.5,0,0,0]];" parent="1" vertex="1">
          <mxGeometry x="50" y="-630" width="80" height="80" as="geometry" />
        </mxCell>
        <mxCell id="_iJNtNnt4_xQDbVP3RY3-191" style="edgeStyle=orthogonalEdgeStyle;rounded=0;orthogonalLoop=1;jettySize=auto;html=1;entryX=1;entryY=0.5;entryDx=0;entryDy=0;" parent="1" source="_iJNtNnt4_xQDbVP3RY3-190" target="_iJNtNnt4_xQDbVP3RY3-188" edge="1">
          <mxGeometry relative="1" as="geometry">
            <Array as="points">
              <mxPoint x="180" y="-590" />
            </Array>
          </mxGeometry>
        </mxCell>
        <mxCell id="_iJNtNnt4_xQDbVP3RY3-190" value="reverse = reverse *10 + n%10&lt;br&gt;&amp;nbsp;n = b%10" style="rounded=0;whiteSpace=wrap;html=1;" parent="1" vertex="1">
          <mxGeometry x="30" y="-840" width="180" height="60" as="geometry" />
        </mxCell>
        <mxCell id="_iJNtNnt4_xQDbVP3RY3-192" value="true" style="text;html=1;strokeColor=none;fillColor=none;align=center;verticalAlign=middle;whiteSpace=wrap;rounded=0;" parent="1" vertex="1">
          <mxGeometry x="30" y="-710" width="60" height="30" as="geometry" />
        </mxCell>
        <mxCell id="_iJNtNnt4_xQDbVP3RY3-194" value="end" style="ellipse;whiteSpace=wrap;html=1;" parent="1" vertex="1">
          <mxGeometry x="520" y="-630" width="120" height="80" as="geometry" />
        </mxCell>
        <mxCell id="_iJNtNnt4_xQDbVP3RY3-195" value="false" style="text;html=1;strokeColor=none;fillColor=none;align=center;verticalAlign=middle;whiteSpace=wrap;rounded=0;" parent="1" vertex="1">
          <mxGeometry x="10" y="-920" width="60" height="30" as="geometry" />
        </mxCell>
        <mxCell id="_iJNtNnt4_xQDbVP3RY3-198" style="edgeStyle=orthogonalEdgeStyle;rounded=0;orthogonalLoop=1;jettySize=auto;html=1;entryX=0.5;entryY=0;entryDx=0;entryDy=0;" parent="1" source="_iJNtNnt4_xQDbVP3RY3-196" target="_iJNtNnt4_xQDbVP3RY3-194" edge="1">
          <mxGeometry relative="1" as="geometry" />
        </mxCell>
        <mxCell id="_iJNtNnt4_xQDbVP3RY3-196" value="output reverse" style="shape=parallelogram;perimeter=parallelogramPerimeter;whiteSpace=wrap;html=1;fixedSize=1;" parent="1" vertex="1">
          <mxGeometry x="370" y="-840" width="120" height="60" as="geometry" />
        </mxCell>
        <mxCell id="_iJNtNnt4_xQDbVP3RY3-201" style="edgeStyle=orthogonalEdgeStyle;rounded=0;orthogonalLoop=1;jettySize=auto;html=1;" parent="1" source="_iJNtNnt4_xQDbVP3RY3-200" edge="1">
          <mxGeometry relative="1" as="geometry">
            <mxPoint x="2068.7691556490386" y="1510" as="targetPoint" />
          </mxGeometry>
        </mxCell>
        <mxCell id="_iJNtNnt4_xQDbVP3RY3-200" value="output&amp;nbsp; reverse(n)" style="shape=parallelogram;perimeter=parallelogramPerimeter;whiteSpace=wrap;html=1;fixedSize=1;" parent="1" vertex="1">
          <mxGeometry x="190" y="1630" width="120" height="60" as="geometry" />
        </mxCell>
        <mxCell id="_iJNtNnt4_xQDbVP3RY3-205" value="" style="edgeStyle=orthogonalEdgeStyle;rounded=0;orthogonalLoop=1;jettySize=auto;html=1;" parent="1" source="_iJNtNnt4_xQDbVP3RY3-202" target="_iJNtNnt4_xQDbVP3RY3-204" edge="1">
          <mxGeometry relative="1" as="geometry" />
        </mxCell>
        <mxCell id="_iJNtNnt4_xQDbVP3RY3-225" value="" style="edgeStyle=orthogonalEdgeStyle;rounded=0;orthogonalLoop=1;jettySize=auto;html=1;" parent="1" source="_iJNtNnt4_xQDbVP3RY3-202" target="_iJNtNnt4_xQDbVP3RY3-224" edge="1">
          <mxGeometry relative="1" as="geometry" />
        </mxCell>
        <mxCell id="_iJNtNnt4_xQDbVP3RY3-202" value="case 8" style="rhombus;whiteSpace=wrap;html=1;" parent="1" vertex="1">
          <mxGeometry x="50" y="1820" width="80" height="80" as="geometry" />
        </mxCell>
        <mxCell id="_iJNtNnt4_xQDbVP3RY3-207" value="" style="edgeStyle=orthogonalEdgeStyle;rounded=0;orthogonalLoop=1;jettySize=auto;html=1;" parent="1" source="_iJNtNnt4_xQDbVP3RY3-204" target="_iJNtNnt4_xQDbVP3RY3-206" edge="1">
          <mxGeometry relative="1" as="geometry" />
        </mxCell>
        <mxCell id="_iJNtNnt4_xQDbVP3RY3-222" style="edgeStyle=orthogonalEdgeStyle;rounded=0;orthogonalLoop=1;jettySize=auto;html=1;" parent="1" source="_iJNtNnt4_xQDbVP3RY3-204" edge="1">
          <mxGeometry relative="1" as="geometry">
            <mxPoint x="2071.230656550481" y="1660.0000000000005" as="targetPoint" />
            <Array as="points">
              <mxPoint x="260" y="2010" />
              <mxPoint x="2071" y="2010" />
            </Array>
          </mxGeometry>
        </mxCell>
        <mxCell id="_iJNtNnt4_xQDbVP3RY3-204" value="i&amp;lt;n" style="rhombus;whiteSpace=wrap;html=1;" parent="1" vertex="1">
          <mxGeometry x="220" y="1820" width="80" height="80" as="geometry" />
        </mxCell>
        <mxCell id="_iJNtNnt4_xQDbVP3RY3-215" style="edgeStyle=orthogonalEdgeStyle;rounded=0;orthogonalLoop=1;jettySize=auto;html=1;entryX=0;entryY=0.5;entryDx=0;entryDy=0;" parent="1" source="_iJNtNnt4_xQDbVP3RY3-206" edge="1">
          <mxGeometry relative="1" as="geometry">
            <mxPoint x="600" y="1860.0000000000005" as="targetPoint" />
          </mxGeometry>
        </mxCell>
        <mxCell id="_iJNtNnt4_xQDbVP3RY3-219" style="edgeStyle=orthogonalEdgeStyle;rounded=0;orthogonalLoop=1;jettySize=auto;html=1;entryX=0.5;entryY=1;entryDx=0;entryDy=0;" parent="1" source="_iJNtNnt4_xQDbVP3RY3-206" target="_iJNtNnt4_xQDbVP3RY3-217" edge="1">
          <mxGeometry relative="1" as="geometry">
            <Array as="points">
              <mxPoint x="420" y="1960" />
              <mxPoint x="910" y="1960" />
            </Array>
          </mxGeometry>
        </mxCell>
        <mxCell id="_iJNtNnt4_xQDbVP3RY3-206" value="snt(i)" style="rhombus;whiteSpace=wrap;html=1;" parent="1" vertex="1">
          <mxGeometry x="380" y="1820" width="80" height="80" as="geometry" />
        </mxCell>
        <mxCell id="_iJNtNnt4_xQDbVP3RY3-216" style="edgeStyle=orthogonalEdgeStyle;rounded=0;orthogonalLoop=1;jettySize=auto;html=1;entryX=0;entryY=0.5;entryDx=0;entryDy=0;" parent="1" edge="1">
          <mxGeometry relative="1" as="geometry">
            <mxPoint x="700" y="1859.2300000000005" as="sourcePoint" />
            <mxPoint x="850" y="1859.2300000000005" as="targetPoint" />
          </mxGeometry>
        </mxCell>
        <mxCell id="_iJNtNnt4_xQDbVP3RY3-212" value="true" style="text;html=1;strokeColor=none;fillColor=none;align=center;verticalAlign=middle;whiteSpace=wrap;rounded=0;" parent="1" vertex="1">
          <mxGeometry x="310" y="1830" width="60" height="30" as="geometry" />
        </mxCell>
        <mxCell id="_iJNtNnt4_xQDbVP3RY3-213" value="true" style="text;html=1;strokeColor=none;fillColor=none;align=center;verticalAlign=middle;whiteSpace=wrap;rounded=0;" parent="1" vertex="1">
          <mxGeometry x="130" y="1830" width="60" height="30" as="geometry" />
        </mxCell>
        <mxCell id="_iJNtNnt4_xQDbVP3RY3-214" value="true" style="text;html=1;strokeColor=none;fillColor=none;align=center;verticalAlign=middle;whiteSpace=wrap;rounded=0;" parent="1" vertex="1">
          <mxGeometry x="470" y="1820" width="60" height="30" as="geometry" />
        </mxCell>
        <mxCell id="_iJNtNnt4_xQDbVP3RY3-221" style="edgeStyle=orthogonalEdgeStyle;rounded=0;orthogonalLoop=1;jettySize=auto;html=1;entryX=0.5;entryY=0;entryDx=0;entryDy=0;" parent="1" source="_iJNtNnt4_xQDbVP3RY3-217" target="_iJNtNnt4_xQDbVP3RY3-204" edge="1">
          <mxGeometry relative="1" as="geometry">
            <Array as="points">
              <mxPoint x="910" y="1760" />
              <mxPoint x="260" y="1760" />
            </Array>
          </mxGeometry>
        </mxCell>
        <mxCell id="_iJNtNnt4_xQDbVP3RY3-217" value="i++" style="whiteSpace=wrap;html=1;" parent="1" vertex="1">
          <mxGeometry x="850" y="1830" width="120" height="60" as="geometry" />
        </mxCell>
        <mxCell id="_iJNtNnt4_xQDbVP3RY3-218" value="output i" style="shape=parallelogram;perimeter=parallelogramPerimeter;whiteSpace=wrap;html=1;fixedSize=1;" parent="1" vertex="1">
          <mxGeometry x="590" y="1830" width="120" height="60" as="geometry" />
        </mxCell>
        <mxCell id="_iJNtNnt4_xQDbVP3RY3-220" value="false" style="text;html=1;strokeColor=none;fillColor=none;align=center;verticalAlign=middle;whiteSpace=wrap;rounded=0;" parent="1" vertex="1">
          <mxGeometry x="560" y="1930" width="60" height="30" as="geometry" />
        </mxCell>
        <mxCell id="_iJNtNnt4_xQDbVP3RY3-223" value="false" style="text;html=1;strokeColor=none;fillColor=none;align=center;verticalAlign=middle;whiteSpace=wrap;rounded=0;" parent="1" vertex="1">
          <mxGeometry x="310" y="1980" width="60" height="30" as="geometry" />
        </mxCell>
        <mxCell id="_iJNtNnt4_xQDbVP3RY3-227" value="" style="edgeStyle=orthogonalEdgeStyle;rounded=0;orthogonalLoop=1;jettySize=auto;html=1;" parent="1" source="_iJNtNnt4_xQDbVP3RY3-224" edge="1">
          <mxGeometry relative="1" as="geometry">
            <mxPoint x="200" y="2100" as="targetPoint" />
          </mxGeometry>
        </mxCell>
        <mxCell id="_iJNtNnt4_xQDbVP3RY3-224" value="case 9" style="rhombus;whiteSpace=wrap;html=1;" parent="1" vertex="1">
          <mxGeometry x="50" y="2060" width="80" height="80" as="geometry" />
        </mxCell>
        <mxCell id="_iJNtNnt4_xQDbVP3RY3-229" style="edgeStyle=orthogonalEdgeStyle;rounded=0;orthogonalLoop=1;jettySize=auto;html=1;" parent="1" source="_iJNtNnt4_xQDbVP3RY3-228" edge="1">
          <mxGeometry relative="1" as="geometry">
            <mxPoint x="2066.307842548077" y="2000" as="targetPoint" />
          </mxGeometry>
        </mxCell>
        <mxCell id="_iJNtNnt4_xQDbVP3RY3-228" value="exit" style="rounded=0;whiteSpace=wrap;html=1;" parent="1" vertex="1">
          <mxGeometry x="200" y="2070" width="120" height="60" as="geometry" />
        </mxCell>
        <mxCell id="MkGP1JYkQHCnLpTFdyHZ-3" value="true" style="text;html=1;strokeColor=none;fillColor=none;align=center;verticalAlign=middle;whiteSpace=wrap;rounded=0;" vertex="1" parent="1">
          <mxGeometry x="1270" y="160" width="60" height="30" as="geometry" />
        </mxCell>
        <mxCell id="MkGP1JYkQHCnLpTFdyHZ-5" value="false" style="text;html=1;strokeColor=none;fillColor=none;align=center;verticalAlign=middle;whiteSpace=wrap;rounded=0;" vertex="1" parent="1">
          <mxGeometry x="1150" y="170" width="60" height="30" as="geometry" />
        </mxCell>
      </root>
    </mxGraphModel>
  </diagram>
</mxfile>
